<?xml version="1.0" standalone="no"?>
<!DOCTYPE svg PUBLIC "-//W3C//DTD SVG 20010904//EN"
 "http://www.w3.org/TR/2001/REC-SVG-20010904/DTD/svg10.dtd">
<svg version="1.0" xmlns="http://www.w3.org/2000/svg"
 width="512.000000pt" height="512.000000pt" viewBox="0 0 512.000000 512.000000"
 preserveAspectRatio="xMidYMid meet">

<g transform="translate(0.000000,512.000000) scale(0.100000,-0.100000)"
fill="#000000" stroke="none">
<path d="M4775 5106 c-167 -43 -343 -154 -526 -333 l-96 -94 -639 92 c-352 50
-665 91 -698 91 -111 -1 -110 0 -703 -594 -588 -589 -572 -570 -518 -623 53
-54 34 -70 620 514 427 427 547 541 575 549 28 7 203 -15 827 -104 436 -62
801 -118 812 -123 39 -22 60 -67 75 -162 l15 -94 -27 -23 c-33 -27 -150 -98
-185 -111 -24 -9 -27 -7 -37 23 -15 46 -73 111 -128 144 -41 24 -57 27 -132
27 -98 0 -141 -18 -201 -82 -61 -64 -74 -97 -74 -193 0 -98 18 -141 82 -201
64 -61 97 -74 193 -74 68 0 93 5 125 22 46 24 119 99 130 132 4 15 38 36 108
70 56 27 116 59 134 71 l32 21 5 -23 c12 -51 167 -1164 168 -1198 0 -20 -7
-50 -15 -66 -9 -16 -595 -608 -1304 -1316 -1041 -1039 -1294 -1287 -1320
-1293 -78 -16 -43 -48 -1005 913 -805 806 -907 911 -913 944 -4 21 -4 50 0 65
4 19 218 240 661 683 579 581 654 659 654 686 0 39 -36 74 -75 74 -26 0 -118
-88 -688 -657 -472 -472 -664 -671 -680 -703 -34 -69 -31 -178 6 -246 39 -70
1823 -1853 1886 -1884 61 -31 135 -36 207 -16 l59 17 1313 1312 c1049 1049
1318 1322 1338 1363 17 35 25 67 25 110 0 32 -40 346 -91 698 l-91 638 100
103 c55 56 103 115 107 130 14 54 -36 103 -91 89 -12 -3 -49 -35 -81 -72 l-58
-66 -13 62 c-29 144 -115 227 -258 248 l-49 7 54 50 c128 118 288 218 399 251
159 47 212 -12 161 -176 -25 -81 -25 -100 3 -126 51 -48 106 -20 137 70 92
271 -54 450 -315 384z m-674 -1005 c16 -16 29 -37 29 -45 0 -19 1 -19 -38 -5
-25 9 -52 47 -52 75 0 14 37 -1 61 -25z m-141 -146 c13 -14 43 -32 67 -41 49
-19 42 -34 -15 -34 -88 0 -156 95 -126 175 5 13 12 5 29 -30 13 -25 33 -57 45
-70z"/>
<path d="M2211 3686 c-173 -173 -185 -187 -185 -222 0 -26 6 -42 23 -55 42
-34 70 -25 143 48 l68 68 258 -257 c141 -141 267 -259 279 -263 26 -7 78 17
87 40 17 45 3 62 -256 322 l-262 263 67 68 c76 76 86 111 44 150 -50 47 -66
37 -266 -162z"/>
<path d="M1834 3274 c-52 -19 -156 -112 -191 -171 -35 -60 -43 -163 -18 -230
55 -144 223 -213 362 -149 28 13 78 49 111 79 33 30 73 58 91 62 72 16 151
-64 137 -139 -8 -42 -74 -118 -122 -141 -44 -21 -87 -14 -134 20 -43 32 -74
32 -105 0 -37 -36 -32 -71 15 -116 74 -71 197 -86 293 -37 62 31 144 114 174
177 66 134 14 289 -121 358 -40 21 -66 27 -116 27 -85 0 -136 -24 -224 -104
-69 -62 -69 -62 -119 -57 -99 9 -140 104 -81 190 62 92 147 120 218 72 70 -48
136 -25 136 47 0 39 -29 72 -94 105 -43 23 -160 27 -212 7z"/>
<path d="M3253 3097 c-167 -167 -183 -186 -183 -218 0 -32 21 -55 299 -333
294 -293 300 -299 333 -292 47 9 398 360 398 398 0 40 -36 78 -73 78 -28 0
-51 -19 -177 -145 -80 -80 -149 -145 -155 -145 -6 0 -46 36 -90 80 l-79 80
148 149 c142 144 147 150 144 186 -4 49 -43 81 -85 71 -17 -5 -83 -62 -173
-152 l-146 -144 -84 85 -84 85 152 153 c96 97 152 161 152 174 0 38 -38 73
-78 73 -34 0 -49 -13 -219 -183z"/>
<path d="M1405 2871 c-11 -5 -100 -90 -197 -188 -160 -161 -178 -183 -178
-213 0 -31 25 -59 287 -321 157 -159 298 -292 313 -297 18 -7 36 -6 56 3 16 7
107 91 202 187 150 152 172 178 172 206 0 49 -37 79 -90 72 -8 -1 -81 -67
-162 -148 l-148 -147 -85 85 -85 84 144 146 c79 80 147 155 150 167 8 26 -16
78 -39 87 -49 18 -66 7 -216 -141 l-149 -147 -85 84 -85 84 150 151 c115 116
150 157 150 177 0 51 -58 89 -105 69z"/>
<path d="M2873 2671 c-117 -40 -193 -141 -201 -267 -8 -128 6 -154 191 -341
118 -119 171 -167 206 -182 156 -67 324 -8 399 140 29 56 34 77 34 137 1 61
-4 82 -31 137 -50 101 -111 133 -159 82 -30 -32 -27 -69 9 -121 83 -117 -8
-272 -149 -251 -44 6 -56 16 -185 143 -76 76 -146 150 -154 166 -20 38 -13
124 13 159 55 74 156 87 235 29 53 -40 73 -40 111 -2 38 38 33 71 -19 117 -76
68 -197 90 -300 54z"/>
<path d="M859 2287 c-64 -24 -101 -53 -213 -166 -99 -99 -110 -114 -110 -146
0 -34 18 -54 295 -331 270 -269 298 -294 328 -294 30 0 49 14 153 117 138 137
168 186 168 276 0 93 -17 135 -80 197 -55 56 -105 80 -164 80 -18 0 -26 5 -26
18 0 82 -73 193 -154 234 -51 26 -148 33 -197 15z m163 -176 c62 -69 51 -111
-57 -221 l-84 -85 -81 80 c-44 44 -80 84 -80 90 0 15 130 141 165 160 45 24
103 14 137 -24z m274 -275 c28 -28 34 -41 34 -78 0 -52 -25 -91 -114 -178
l-56 -55 -85 86 -86 85 89 87 c87 85 91 87 137 87 40 0 52 -5 81 -34z"/>
<path d="M2391 2233 c-11 -10 -24 -33 -27 -51 -7 -33 -2 -39 292 -333 269
-269 303 -299 332 -299 42 0 72 30 72 73 0 29 -29 61 -298 330 -316 315 -322
320 -371 280z"/>
<path d="M2165 1968 c-49 -18 -84 -45 -193 -152 -125 -122 -138 -143 -118
-188 8 -19 138 -157 298 -315 292 -291 300 -297 353 -277 26 10 45 63 33 94
-5 14 -59 76 -121 138 l-112 112 80 80 c46 46 93 84 111 89 52 15 98 -10 194
-103 84 -83 106 -95 145 -80 23 9 46 60 39 88 -7 29 -176 197 -223 221 -19 9
-54 20 -79 24 -45 6 -46 6 -57 57 -23 102 -87 178 -176 209 -48 17 -130 18
-174 3z m146 -155 c39 -23 63 -76 55 -121 -4 -28 -24 -55 -88 -119 l-83 -83
-85 85 -85 85 55 56 c110 113 165 136 231 97z"/>
<path d="M1634 1455 c-32 -16 -91 -67 -167 -143 -103 -104 -117 -123 -117
-153 0 -30 25 -58 292 -325 160 -161 302 -295 315 -299 27 -6 78 17 87 40 16
42 3 61 -116 181 l-121 123 85 89 c46 49 93 107 103 128 24 50 31 142 15 200
-18 64 -96 147 -157 168 -71 24 -159 21 -219 -9z m202 -159 c29 -29 34 -41 34
-81 0 -46 -2 -50 -87 -137 l-87 -89 -85 86 -86 85 55 56 c87 89 126 114 178
114 37 0 50 -6 78 -34z"/>
</g>
</svg>
